<svg width="22" height="24" viewBox="0 0 22 24" fill="none" xmlns="http://www.w3.org/2000/svg">
<path d="M20.8714 23.1762C20.3527 23.6949 19.6492 23.9862 18.9157 23.9862C18.1822 23.9862 17.4787 23.6949 16.96 23.1762L10.8499 16.1925L4.73972 23.1739C4.48366 23.4342 4.1786 23.6412 3.84215 23.783C3.50569 23.9247 3.14449 23.9985 2.77939 24C2.41428 24.0015 2.0525 23.9306 1.7149 23.7916C1.3773 23.6526 1.07057 23.4481 0.812395 23.1899C0.554224 22.9317 0.349725 22.625 0.210691 22.2874C0.0716572 21.9498 0.000840942 21.588 0.00232761 21.2229C0.00381429 20.8578 0.0775741 20.4966 0.219353 20.1602C0.361131 19.8237 0.568123 19.5186 0.828387 19.2626L7.18517 12.0023L0.826082 4.73741C0.565818 4.48136 0.358826 4.1763 0.217048 3.83984C0.0752694 3.50339 0.0015096 3.14219 2.29309e-05 2.77708C-0.00146374 2.41198 0.0693526 2.05019 0.208386 1.71259C0.34742 1.37499 0.55192 1.06826 0.81009 0.81009C1.06826 0.55192 1.37499 0.34742 1.71259 0.208386C2.05019 0.0693526 2.41198 -0.00146374 2.77708 2.29309e-05C3.14219 0.0015096 3.50339 0.0752694 3.83984 0.217048C4.1763 0.358826 4.48136 0.565818 4.73741 0.826082L10.8499 7.81209L16.96 0.826082C17.2161 0.565818 17.5212 0.358826 17.8576 0.217048C18.1941 0.0752694 18.5553 0.0015096 18.9204 2.29309e-05C19.2855 -0.00146374 19.6473 0.0693526 19.9849 0.208386C20.3225 0.34742 20.6292 0.55192 20.8874 0.81009C21.1455 1.06826 21.35 1.37499 21.4891 1.71259C21.6281 2.05019 21.6989 2.41198 21.6974 2.77708C21.6959 3.14219 21.6222 3.50339 21.4804 3.83984C21.3386 4.1763 21.1316 4.48136 20.8714 4.73741L14.5146 12.0023L20.8714 19.2626C21.1285 19.5195 21.3325 19.8245 21.4717 20.1603C21.6109 20.496 21.6825 20.8559 21.6825 21.2194C21.6825 21.5829 21.6109 21.9428 21.4717 22.2785C21.3325 22.6143 21.1285 22.9194 20.8714 23.1762Z" fill="#EEEEEE"/>
</svg>
