<svg width="31" height="24" viewBox="0 0 31 24" fill="none" xmlns="http://www.w3.org/2000/svg">
<path d="M25.4733 0.765168C25.9945 0.268959 26.6881 -0.00536544 27.4078 7.95325e-05C28.1274 0.00552451 28.8167 0.290314 29.3304 0.794353C29.844 1.29839 30.1418 1.98226 30.1608 2.70165C30.1798 3.42103 29.9186 4.11968 29.4323 4.65016L14.6694 23.1131C14.4155 23.3865 14.1091 23.6059 13.7685 23.7582C13.4279 23.9106 13.0601 23.9926 12.6871 23.9995C12.3141 24.0064 11.9435 23.938 11.5975 23.7985C11.2515 23.6589 10.9372 23.4509 10.6734 23.1871L0.883218 13.3969C0.610578 13.1429 0.391901 12.8365 0.240231 12.4961C0.0885611 12.1557 0.00700594 11.7883 0.000431862 11.4157C-0.00614222 11.0431 0.0623996 10.673 0.201967 10.3274C0.341534 9.98189 0.549268 9.66801 0.812777 9.4045C1.07629 9.14099 1.39017 8.93326 1.7357 8.79369C2.08124 8.65412 2.45135 8.58558 2.82395 8.59215C3.19654 8.59873 3.564 8.68028 3.9044 8.83195C4.2448 8.98362 4.55116 9.2023 4.8052 9.47494L12.553 17.219L25.403 0.846569C25.4262 0.818082 25.4509 0.790906 25.477 0.765168H25.4733Z" fill="#EEEEEE"/>
</svg>
