<svg width="1080" height="1080" viewBox="0 0 1080 1080" fill="none" xmlns="http://www.w3.org/2000/svg">
<g clip-path="url(#clip0_31_23)">
<circle cx="540" cy="540" r="522" fill="#3A3F47" stroke="#EEEEEE" stroke-width="36"/>
<path d="M551.168 356.488V457H531.008V391.624L504.08 457H488.816L461.744 391.624V457H441.584V356.488H464.48L496.448 431.224L528.416 356.488H551.168ZM647.42 377.224L598.028 494.728H576.572L593.852 454.984L561.884 377.224H584.492L605.084 432.952L625.964 377.224H647.42Z" fill="#EEEEEE"/>
<path d="M425.459 698H405.299L359.651 629.024V698H339.491V597.344H359.651L405.299 666.464V597.344H425.459V698ZM480.805 699.296C473.125 699.296 466.213 697.616 460.069 694.256C453.925 690.8 449.077 685.952 445.525 679.712C442.069 673.472 440.341 666.272 440.341 658.112C440.341 649.952 442.117 642.752 445.669 636.512C449.317 630.272 454.261 625.472 460.501 622.112C466.741 618.656 473.701 616.928 481.381 616.928C489.061 616.928 496.021 618.656 502.261 622.112C508.501 625.472 513.397 630.272 516.949 636.512C520.597 642.752 522.421 649.952 522.421 658.112C522.421 666.272 520.549 673.472 516.805 679.712C513.157 685.952 508.165 690.8 501.829 694.256C495.589 697.616 488.581 699.296 480.805 699.296ZM480.805 681.728C484.453 681.728 487.861 680.864 491.029 679.136C494.293 677.312 496.885 674.624 498.805 671.072C500.725 667.52 501.685 663.2 501.685 658.112C501.685 650.528 499.669 644.72 495.637 640.688C491.701 636.56 486.853 634.496 481.093 634.496C475.333 634.496 470.485 636.56 466.549 640.688C462.709 644.72 460.789 650.528 460.789 658.112C460.789 665.696 462.661 671.552 466.405 675.68C470.245 679.712 475.045 681.728 480.805 681.728ZM560.681 634.784V673.376C560.681 676.064 561.305 678.032 562.553 679.28C563.897 680.432 566.105 681.008 569.177 681.008H578.537V698H565.865C548.873 698 540.377 689.744 540.377 673.232V634.784H530.873V618.224H540.377V598.496H560.681V618.224H578.537V634.784H560.681ZM667.198 656.384C667.198 659.264 667.006 661.856 666.622 664.16H608.302C608.782 669.92 610.798 674.432 614.35 677.696C617.902 680.96 622.27 682.592 627.454 682.592C634.942 682.592 640.27 679.376 643.438 672.944H665.182C662.878 680.624 658.462 686.96 651.934 691.952C645.406 696.848 637.39 699.296 627.886 699.296C620.206 699.296 613.294 697.616 607.15 694.256C601.102 690.8 596.35 685.952 592.894 679.712C589.534 673.472 587.854 666.272 587.854 658.112C587.854 649.856 589.534 642.608 592.894 636.368C596.254 630.128 600.958 625.328 607.006 621.968C613.054 618.608 620.014 616.928 627.886 616.928C635.47 616.928 642.238 618.56 648.19 621.824C654.238 625.088 658.894 629.744 662.158 635.792C665.518 641.744 667.198 648.608 667.198 656.384ZM646.318 650.624C646.222 645.44 644.35 641.312 640.702 638.24C637.054 635.072 632.59 633.488 627.31 633.488C622.318 633.488 618.094 635.024 614.638 638.096C611.278 641.072 609.214 645.248 608.446 650.624H646.318ZM712.441 699.296C705.913 699.296 700.057 698.144 694.873 695.84C689.689 693.44 685.561 690.224 682.489 686.192C679.513 682.16 677.881 677.696 677.593 672.8H697.897C698.281 675.872 699.769 678.416 702.361 680.432C705.049 682.448 708.361 683.456 712.297 683.456C716.137 683.456 719.113 682.688 721.225 681.152C723.433 679.616 724.537 677.648 724.537 675.248C724.537 672.656 723.193 670.736 720.505 669.488C717.913 668.144 713.737 666.704 707.977 665.168C702.025 663.728 697.129 662.24 693.289 660.704C689.545 659.168 686.281 656.816 683.497 653.648C680.809 650.48 679.465 646.208 679.465 640.832C679.465 636.416 680.713 632.384 683.209 628.736C685.801 625.088 689.449 622.208 694.153 620.096C698.953 617.984 704.569 616.928 711.001 616.928C720.505 616.928 728.089 619.328 733.753 624.128C739.417 628.832 742.537 635.216 743.113 643.28H723.817C723.529 640.112 722.185 637.616 719.785 635.792C717.481 633.872 714.361 632.912 710.425 632.912C706.777 632.912 703.945 633.584 701.929 634.928C700.009 636.272 699.049 638.144 699.049 640.544C699.049 643.232 700.393 645.296 703.081 646.736C705.769 648.08 709.945 649.472 715.609 650.912C721.369 652.352 726.121 653.84 729.865 655.376C733.609 656.912 736.825 659.312 739.513 662.576C742.297 665.744 743.737 669.968 743.833 675.248C743.833 679.856 742.537 683.984 739.945 687.632C737.449 691.28 733.801 694.16 729.001 696.272C724.297 698.288 718.777 699.296 712.441 699.296Z" fill="#EEEEEE"/>
<rect x="204" y="515" width="672" height="25" rx="8" fill="#D6E3E2"/>
<rect x="204" y="756" width="672" height="25" rx="8" fill="#D6E3E2"/>
</g>
<defs>
<clipPath id="clip0_31_23">
<rect width="1080" height="1080" rx="16" fill="white"/>
</clipPath>
</defs>
</svg>
