<svg width="25" height="24" viewBox="0 0 25 24" fill="none" xmlns="http://www.w3.org/2000/svg">
<path d="M23.19 4.94119L19.0651 0.816307C18.5268 0.310626 17.8213 0.0204732 17.083 0.0010429C16.3446 -0.0183874 15.6249 0.234261 15.0607 0.710927L1.51176 14.2598C1.02515 14.7505 0.722167 15.3937 0.653663 16.0814L0.00632726 22.3591C-0.0139525 22.5795 0.0146588 22.8018 0.0901215 23.01C0.165584 23.2182 0.28604 23.4071 0.442903 23.5634C0.583571 23.7029 0.750397 23.8133 0.933815 23.8882C1.11723 23.9631 1.31364 24.0011 1.51176 24H1.64725L7.92491 23.4279C8.61258 23.3594 9.25576 23.0564 9.74648 22.5698L23.2954 9.02092C23.8213 8.46536 24.1054 7.724 24.0857 6.95928C24.0659 6.19456 23.7439 5.46886 23.19 4.94119ZM18.0715 9.96934L14.037 5.93478L16.9726 2.92391L21.0824 7.03374L18.0715 9.96934Z" fill="#EEEEEE"/>
</svg>
