<svg width="24" height="24" viewBox="0 0 24 24" fill="none" xmlns="http://www.w3.org/2000/svg">
<path d="M3.19991 1.31624e-07C2.35124 1.31624e-07 1.53733 0.337133 0.937232 0.937232C0.337132 1.53733 0 2.35124 0 3.19991V19.1995C0 20.0481 0.337132 20.862 0.937232 21.4621C1.53733 22.0622 2.35124 22.3994 3.19991 22.3994V13.5996C3.19991 12.9631 3.45276 12.3527 3.90284 11.9026C4.35291 11.4525 4.96334 11.1997 5.59985 11.1997H15.91L17.7643 9.34374C18.3595 8.74919 19.1065 8.32955 19.9239 8.13063C20.7413 7.93172 21.5976 7.96117 22.3994 8.21577V5.79184C22.3992 4.94324 22.0619 4.12946 21.4618 3.5295L18.8683 0.935974C18.2681 0.33642 17.4543 -0.000243024 16.6059 1.31624e-07H15.9996V5.59985C15.9996 6.23635 15.7467 6.84678 15.2966 7.29685C14.8466 7.74693 14.2361 7.99978 13.5996 7.99978H7.1998C6.5633 7.99978 5.95287 7.74693 5.50279 7.29685C5.05272 6.84678 4.79987 6.23635 4.79987 5.59985V1.31624e-07H3.19991ZM14.31 12.7996L10.0381 17.0715C9.38279 17.7271 8.91773 18.5483 8.69256 19.4475L8.09258 21.8442C8.04624 22.0261 8.01731 22.212 8.00618 22.3994H4.79987V13.5996C4.79987 13.3875 4.88415 13.184 5.03418 13.034C5.1842 12.8839 5.38768 12.7996 5.59985 12.7996H14.31ZM6.39982 1.31624e-07H14.3996V5.59985C14.3996 5.81201 14.3153 6.01549 14.1653 6.16551C14.0153 6.31554 13.8118 6.39982 13.5996 6.39982H7.1998C6.98763 6.39982 6.78416 6.31554 6.63413 6.16551C6.48411 6.01549 6.39982 5.81201 6.39982 5.59985V1.31624e-07ZM18.8955 10.4765L11.1677 18.2043C10.7173 18.6545 10.3977 19.2185 10.2429 19.8363L9.64293 22.233C9.58377 22.4714 9.58726 22.721 9.65307 22.9576C9.71888 23.1942 9.84478 23.4098 10.0185 23.5834C10.1923 23.757 10.408 23.8827 10.6447 23.9483C10.8813 24.0139 11.131 24.0171 11.3693 23.9577L13.766 23.3594C14.3838 23.2048 14.9479 22.8852 15.398 22.4346L23.1258 14.7068C23.6796 14.1441 23.9885 13.3854 23.9853 12.5959C23.9821 11.8064 23.667 11.0502 23.1086 10.492C22.5503 9.93389 21.7939 9.61905 21.0045 9.61614C20.215 9.61324 19.4563 9.92249 18.8939 10.4765H18.8955Z" fill="#EEEEEE"/>
</svg>
